<mxfile host="Electron" modified="2025-10-13T17:31:35.445Z" agent="Mozilla/5.0 (Windows NT 10.0; Win64; x64) AppleWebKit/537.36 (KHTML, like Gecko) draw.io/24.5.1 Chrome/124.0.6367.207 Electron/30.0.6 Safari/537.36" etag="J3SK7xkQkoC8aWyCHNBl" version="24.5.1" type="device">
  <diagram name="Page-1" id="1JxPmDrOZ6C-Ugt2GIDU">
    <mxGraphModel dx="1276" dy="607" grid="1" gridSize="10" guides="1" tooltips="1" connect="1" arrows="1" fold="1" page="1" pageScale="1" pageWidth="1169" pageHeight="827" math="0" shadow="0">
      <root>
        <mxCell id="0" />
        <mxCell id="1" parent="0" />
        <mxCell id="8VdEKnk1jZlLYVMc5YEI-3" value="&lt;span style=&quot;line-height: 115%; font-family: Helvetica, sans-serif;&quot;&gt;&lt;font style=&quot;font-size: 12px;&quot;&gt;Lt. Col. Matt Urban Human Services Center of Western New York&lt;/font&gt;&lt;/span&gt;" style="swimlane;fontStyle=0;childLayout=stackLayout;horizontal=1;startSize=26;strokeColor=#C6D9F1;strokeWidth=3;fillColor=none;horizontalStack=0;resizeParent=1;resizeParentMax=0;resizeLast=0;collapsible=1;marginBottom=0;whiteSpace=wrap;html=1;" parent="1" vertex="1">
          <mxGeometry x="140" y="80" width="380" height="52" as="geometry" />
        </mxCell>
        <mxCell id="8VdEKnk1jZlLYVMc5YEI-4" value="Corporate Body" style="text;strokeColor=#C6D9F1;strokeWidth=3;fillColor=none;align=center;verticalAlign=top;spacingLeft=4;spacingRight=4;overflow=hidden;rotatable=0;points=[[0,0.5],[1,0.5]];portConstraint=eastwest;whiteSpace=wrap;html=1;" parent="8VdEKnk1jZlLYVMc5YEI-3" vertex="1">
          <mxGeometry y="26" width="380" height="26" as="geometry" />
        </mxCell>
        <mxCell id="8VdEKnk1jZlLYVMc5YEI-5" value="Community development" style="swimlane;fontStyle=0;childLayout=stackLayout;horizontal=1;startSize=26;strokeColor=#FFFAA0;strokeWidth=3;fillColor=none;horizontalStack=0;resizeParent=1;resizeParentMax=0;resizeLast=0;collapsible=1;marginBottom=0;whiteSpace=wrap;html=1;" parent="1" vertex="1">
          <mxGeometry x="240" y="280" width="290" height="52" as="geometry" />
        </mxCell>
        <mxCell id="8VdEKnk1jZlLYVMc5YEI-6" value="Activity" style="text;strokeColor=#FFFAA0;strokeWidth=3;fillColor=none;align=center;verticalAlign=top;spacingLeft=4;spacingRight=4;overflow=hidden;rotatable=0;points=[[0,0.5],[1,0.5]];portConstraint=eastwest;whiteSpace=wrap;html=1;" parent="8VdEKnk1jZlLYVMc5YEI-5" vertex="1">
          <mxGeometry y="26" width="290" height="26" as="geometry" />
        </mxCell>
        <mxCell id="8VdEKnk1jZlLYVMc5YEI-8" value="&lt;p&gt;East Side (Buffalo, New York)&lt;/p&gt;" style="swimlane;fontStyle=0;childLayout=stackLayout;horizontal=1;startSize=26;strokeColor=#FAA0A0;strokeWidth=2;fillColor=none;horizontalStack=0;resizeParent=1;resizeParentMax=0;resizeLast=0;collapsible=1;marginBottom=0;whiteSpace=wrap;html=1;" parent="1" vertex="1">
          <mxGeometry x="690" y="200" width="210" height="52" as="geometry" />
        </mxCell>
        <mxCell id="8VdEKnk1jZlLYVMc5YEI-9" value="Place" style="text;strokeColor=#FAA0A0;strokeWidth=2;fillColor=#FAA0A0;align=center;verticalAlign=top;spacingLeft=4;spacingRight=4;overflow=hidden;rotatable=0;points=[[0,0.5],[1,0.5]];portConstraint=eastwest;whiteSpace=wrap;html=1;" parent="8VdEKnk1jZlLYVMc5YEI-8" vertex="1">
          <mxGeometry y="26" width="210" height="26" as="geometry" />
        </mxCell>
        <mxCell id="8VdEKnk1jZlLYVMc5YEI-11" value="&lt;span style=&quot;line-height: 115%;&quot;&gt;&lt;font face=&quot;Helvetica&quot; style=&quot;font-size: 12px;&quot;&gt;The organization’s&lt;br/&gt;mission is to create programs to improve the quality of residential housing and&lt;br/&gt;develop projects to improve the East Side of Buffalo and Western New York&lt;/font&gt;&lt;/span&gt;" style="html=1;whiteSpace=wrap;rounded=1;arcSize=50;" parent="1" vertex="1">
          <mxGeometry x="190" y="429" width="230" height="96" as="geometry" />
        </mxCell>
        <mxCell id="8VdEKnk1jZlLYVMc5YEI-15" value="&lt;br&gt;&lt;pre&gt;&lt;code&gt;&lt;font face=&quot;Helvetica&quot;&gt;N 42°53′48&quot; W 78°50′2&quot; &lt;br/&gt;[WGS84]&lt;/font&gt;&lt;/code&gt;&lt;/pre&gt;&lt;div&gt;&lt;br&gt;&lt;/div&gt;" style="html=1;whiteSpace=wrap;rounded=1;arcSize=50;" parent="1" vertex="1">
          <mxGeometry x="760" y="348" width="170" height="66" as="geometry" />
        </mxCell>
        <mxCell id="8VdEKnk1jZlLYVMc5YEI-16" value="" style="endArrow=classic;html=1;rounded=0;exitX=0.204;exitY=1.062;exitDx=0;exitDy=0;exitPerimeter=0;entryX=0.44;entryY=-0.033;entryDx=0;entryDy=0;entryPerimeter=0;" parent="1" source="8VdEKnk1jZlLYVMc5YEI-6" edge="1" target="8VdEKnk1jZlLYVMc5YEI-11">
          <mxGeometry relative="1" as="geometry">
            <mxPoint x="279" y="336" as="sourcePoint" />
            <mxPoint x="270" y="420" as="targetPoint" />
          </mxGeometry>
        </mxCell>
        <mxCell id="8VdEKnk1jZlLYVMc5YEI-17" value="general description" style="edgeLabel;resizable=0;html=1;;align=center;verticalAlign=middle;" parent="8VdEKnk1jZlLYVMc5YEI-16" connectable="0" vertex="1">
          <mxGeometry relative="1" as="geometry" />
        </mxCell>
        <mxCell id="8VdEKnk1jZlLYVMc5YEI-18" value="" style="endArrow=classic;html=1;rounded=0;entryX=0.188;entryY=-0.024;entryDx=0;entryDy=0;entryPerimeter=0;" parent="1" source="8VdEKnk1jZlLYVMc5YEI-6" target="8VdEKnk1jZlLYVMc5YEI-23" edge="1">
          <mxGeometry relative="1" as="geometry">
            <mxPoint x="569" y="356" as="sourcePoint" />
            <mxPoint x="550" y="430" as="targetPoint" />
          </mxGeometry>
        </mxCell>
        <mxCell id="8VdEKnk1jZlLYVMc5YEI-19" value="activity type" style="edgeLabel;resizable=0;html=1;;align=center;verticalAlign=middle;" parent="8VdEKnk1jZlLYVMc5YEI-18" connectable="0" vertex="1">
          <mxGeometry relative="1" as="geometry" />
        </mxCell>
        <mxCell id="8VdEKnk1jZlLYVMc5YEI-20" value="" style="endArrow=classic;html=1;rounded=0;entryX=0.75;entryY=0;entryDx=0;entryDy=0;exitX=0.722;exitY=1.062;exitDx=0;exitDy=0;exitPerimeter=0;" parent="1" source="8VdEKnk1jZlLYVMc5YEI-4" target="8VdEKnk1jZlLYVMc5YEI-5" edge="1">
          <mxGeometry relative="1" as="geometry">
            <mxPoint x="410" y="140" as="sourcePoint" />
            <mxPoint x="973" y="130" as="targetPoint" />
          </mxGeometry>
        </mxCell>
        <mxCell id="8VdEKnk1jZlLYVMc5YEI-21" value="performs or performed" style="edgeLabel;resizable=0;html=1;;align=center;verticalAlign=middle;" parent="8VdEKnk1jZlLYVMc5YEI-20" connectable="0" vertex="1">
          <mxGeometry relative="1" as="geometry" />
        </mxCell>
        <mxCell id="8VdEKnk1jZlLYVMc5YEI-23" value="Community development" style="html=1;whiteSpace=wrap;rounded=1;arcSize=50;" parent="1" vertex="1">
          <mxGeometry x="530" y="444" width="160" height="66" as="geometry" />
        </mxCell>
        <mxCell id="8VdEKnk1jZlLYVMc5YEI-24" value="" style="endArrow=classic;html=1;rounded=0;entryX=0.25;entryY=0;entryDx=0;entryDy=0;exitX=0.5;exitY=1;exitDx=0;exitDy=0;" parent="1" source="8VdEKnk1jZlLYVMc5YEI-8" target="8VdEKnk1jZlLYVMc5YEI-15" edge="1">
          <mxGeometry relative="1" as="geometry">
            <mxPoint x="710" y="253" as="sourcePoint" />
            <mxPoint x="866" y="359" as="targetPoint" />
          </mxGeometry>
        </mxCell>
        <mxCell id="8VdEKnk1jZlLYVMc5YEI-26" value="Text" style="edgeLabel;html=1;align=center;verticalAlign=middle;resizable=0;points=[];" parent="8VdEKnk1jZlLYVMc5YEI-24" vertex="1" connectable="0">
          <mxGeometry x="-0.0477" y="-3" relative="1" as="geometry">
            <mxPoint as="offset" />
          </mxGeometry>
        </mxCell>
        <mxCell id="8VdEKnk1jZlLYVMc5YEI-27" value="coordinates" style="edgeLabel;html=1;align=center;verticalAlign=middle;resizable=0;points=[];" parent="8VdEKnk1jZlLYVMc5YEI-24" vertex="1" connectable="0">
          <mxGeometry x="-0.0484" y="-4" relative="1" as="geometry">
            <mxPoint y="1" as="offset" />
          </mxGeometry>
        </mxCell>
        <mxCell id="8VdEKnk1jZlLYVMc5YEI-28" value="" style="endArrow=classic;html=1;rounded=0;entryX=0;entryY=0.75;entryDx=0;entryDy=0;exitX=1.012;exitY=0.108;exitDx=0;exitDy=0;exitPerimeter=0;" parent="1" source="8VdEKnk1jZlLYVMc5YEI-6" target="8VdEKnk1jZlLYVMc5YEI-8" edge="1">
          <mxGeometry relative="1" as="geometry">
            <mxPoint x="414" y="144" as="sourcePoint" />
            <mxPoint x="458" y="290" as="targetPoint" />
          </mxGeometry>
        </mxCell>
        <mxCell id="8VdEKnk1jZlLYVMc5YEI-29" value="is event associated with" style="edgeLabel;resizable=0;html=1;;align=center;verticalAlign=middle;" parent="8VdEKnk1jZlLYVMc5YEI-28" connectable="0" vertex="1">
          <mxGeometry relative="1" as="geometry" />
        </mxCell>
      </root>
    </mxGraphModel>
  </diagram>
</mxfile>
